<svg width="48" height="48" xmlns="http://www.w3.org/2000/svg"><g fill="none" fill-rule="evenodd"><path d="M24 47.5c12.979 0 23.5-10.521 23.5-23.5S36.979.5 24 .5.5 11.021.5 24 11.021 47.5 24 47.5Z" stroke="#EEE"/><path fill="#0864EE" d="M15 33h3V21h-3zm5 0h3V21h-3zm5 0h3V21h-3zm5 0h3V21h-3z"/><path fill="#5697FA" d="M13 35h22v-3H13zm11.646-24.453 10.895 9.219A.7.7 0 0 1 35.09 21H12.911a.7.7 0 0 1-.452-1.234l10.895-9.22a1 1 0 0 1 1.292 0Z"/><path fill="#0864EE" d="M19.21 18h9.61L24 13.936"/></g></svg>